<svg width="19" height="22" viewBox="0 0 19 22" fill="currentColor" xmlns="http://www.w3.org/2000/svg">
<g clip-path="url(#clip0_12_81)">
<path d="M9.5 4.8125C9.12679 4.8125 8.82143 4.50313 8.82143 4.125V3.4375C8.82143 1.53828 10.3397 0 12.2143 0H12.8929C13.2661 0 13.5714 0.309375 13.5714 0.6875V1.375C13.5714 3.27422 12.0531 4.8125 10.1786 4.8125H9.5ZM0 12.375C0 9.09648 1.51406 5.5 4.75 5.5C5.90781 5.5 7.28192 5.94258 8.25737 6.3293C9.05469 6.64297 9.94955 6.64297 10.7469 6.3293C11.7181 5.94688 13.0964 5.5 14.2542 5.5C17.4902 5.5 19.0042 9.09648 19.0042 12.375C19.0042 17.875 15.6114 22 12.2185 22C11.5188 22 10.6027 21.7164 10.0344 21.5145C9.69085 21.3941 9.31763 21.3941 8.97411 21.5145C8.4058 21.7164 7.48973 22 6.78996 22C3.39286 22 0 17.875 0 12.375Z" fill="#FAFAFA"/>
</g>
<defs>
<clipPath id="clip0_12_81">
<rect width="19" height="22" fill="white"/>
</clipPath>
</defs>
</svg>
