<svg width="19" height="21" viewBox="0 0 19 21" fill="none" xmlns="http://www.w3.org/2000/svg">
<path d="M19 3.9375C19 2.48965 17.7828 1.3125 16.2857 1.3125C16.0058 1.3125 15.7344 1.35352 15.4799 1.43145C14.5257 1.71855 13.44 2.04258 12.4688 1.80059C9.27946 1.01719 5.83571 2.25176 3.40558 4.60195C0.975447 6.95215 -0.305357 10.2867 0.504687 13.3711C0.75067 14.3104 0.419866 15.3562 0.122991 16.2832C0.0424107 16.5293 0 16.7918 0 17.0625C0 18.5104 1.21719 19.6875 2.71429 19.6875C2.9942 19.6875 3.26562 19.6465 3.52433 19.5686C4.47857 19.2814 5.56429 18.9574 6.53549 19.1994C9.72478 19.9828 13.1685 18.7482 15.5987 16.398C18.0288 14.0479 19.3096 10.7174 18.4953 7.63301C18.2493 6.69375 18.5801 5.64785 18.877 4.7209C18.9576 4.4748 19 4.2123 19 3.9375ZM9.01228 5.22539C6.69665 5.88164 4.72455 7.78887 4.04598 10.0283C3.93996 10.377 3.5625 10.5738 3.20201 10.4754C2.84152 10.377 2.63795 10.0078 2.73973 9.65918C3.54978 6.98906 5.8654 4.74551 8.63058 3.96211C8.99107 3.85957 9.36853 4.06055 9.47455 4.40918C9.58058 4.75781 9.37277 5.12285 9.01228 5.22539Z" fill="white"/>
</svg>
