<?xml version="1.0" ?>
<!DOCTYPE svg  PUBLIC '-//W3C//DTD SVG 1.1//EN'  'http://www.w3.org/Graphics/SVG/1.1/DTD/svg11.dtd'>
<!-- Uploaded to: SVG Repo, www.svgrepo.com, Generator: SVG Repo Mixer Tools -->
<svg width="800px" height="800px" viewBox="-9.43 0 209.443 209.443" enable-background="new 0 0 190.587 209.443" id="Layer_1" version="1.1" xml:space="preserve" xmlns="http://www.w3.org/2000/svg" xmlns:xlink="http://www.w3.org/1999/xlink">
<g>
<path d="M163.973,18.681c-4.444-0.878-8.476-1.284-12.143-1.284c-14.058-0.151-22.821,6.465-26.973,13.405   c-4.488-6.633-13.311-12.887-27.143-12.758c-0.048,0-0.096,0.001-0.144,0.001c0.825-11.889,6.789-12.679,11.779-13.044   c2.761-0.006,4.813,0.659,4.83,0.621c1.322,0.4,2.718-0.345,3.118-1.667c0.4-1.321-0.346-2.717-1.667-3.117   c-0.149-0.04-2.752-0.832-6.281-0.838c-3.282,0.003-7.522,0.699-11.034,3.745c-3.288,2.845-5.535,7.574-5.805,14.548   c-15.089,1.375-23.545,8.635-28.176,15.361c-4.221-7.402-12.071-15.559-26.305-15.875c-3.766,0-7.856,0.622-12.28,1.961   C6.028,26.209,0.095,49.337,0,75.283c0.02,27.597,7.11,60.271,17.67,86.508c10.882,25.906,23.762,46.723,42.021,47.652   c3.667,0.012,7.364-1.091,10.7-3.181l0.688-0.513c2.03-1.937,3.604-4.203,4.831-6.498c2.687,4.199,6.788,8.49,13.532,8.706   c8.45,0.196,14.653-3.132,17.59-8.037c0.4-0.65,0.748-1.3,1.068-1.946c3.205,4.857,7.905,9.336,15.221,10.813l-0.001,0.005   c0.023,0.005,0.048,0.006,0.071,0.011c0.032,0.007,0.063,0.016,0.096,0.021l0.001-0.006c1.252,0.247,2.517,0.377,3.773,0.377   c18.839-0.947,32.573-22.76,44.244-49.748c11.328-27.312,19.055-61.077,19.08-88.823C190.579,45.543,184.306,23.177,163.973,18.681   z M162.271,155.61c-10.517,26.384-25.944,44.532-35.009,43.585c-0.646,0-1.275-0.063-1.912-0.196l-0.167-0.031   c-6.422-0.809-10.582-8.737-13.161-15.666c-0.743-1.912-2.598-3.185-4.649-3.188c-2.053-0.006-3.912,1.258-4.664,3.167   c-1.865,4.942-2.665,9.181-4.104,11.256c-1.402,1.889-2.479,3.225-9.161,3.42c-1.543,0.265-4.314-2.147-6.339-6.212   c-1.983-3.823-2.896-7.796-2.945-7.793c-0.553-2.317-2.677-3.93-5.061-3.835c-2.384,0.096-4.373,1.866-4.741,4.224   c0,0.006-0.403,2.573-1.451,5.766c-0.94,3.021-2.612,6.363-4.199,7.9c-1.803,1.03-3.39,1.429-5.016,1.436   c-8.513,0.934-22.979-16.092-32.749-41.391C16.85,133.078,9.978,101.173,10.001,75.283c-0.096-25.06,6.667-42.845,18.648-45.972   c3.613-1.094,6.717-1.531,9.382-1.531c16.888-0.581,20.98,19.648,21.032,19.662c0.446,2.404,2.557,4.125,5.001,4.085   c2.444-0.043,4.493-1.837,4.859-4.252c0-0.003,0.112-0.869,0.76-2.643c2.226-5.372,7.419-16.072,27.384-16.585l-0.057-3.486h0.001   l0.058,3.486c0.213-0.003,0.43-0.003,0.646-0.003c11.776,0.139,16.495,4.716,19.475,9.339c1.428,2.344,2.231,4.782,2.648,6.599   c0.421,1.816,0.403,2.755,0.446,2.758c0.007,0.162,0.046,0.314,0.067,0.473c0.023,0.166,0.031,0.336,0.072,0.499   c0.474,1.957,2.094,3.445,4.085,3.755c0.324,0.052,0.653,0.071,0.983,0.058c2.423-0.104,4.367-1.914,4.727-4.224   c0.041-0.261,0.047-0.526,0.047-0.791h0.014c0.458-0.495-0.625-19.095,21.551-19.112c2.928,0,6.313,0.325,10.202,1.094   c11.927,1.874,18.565,17.791,18.554,42.134C180.612,96.531,173.13,129.552,162.271,155.61z" fill="#231F20"/>
<path d="M163.296,117.602c-0.55-0.049-1.036,0.357-1.085,0.907c-2.107,23.234-11.541,41.123-28.284,62.228   c-0.343,0.432-0.271,1.063,0.161,1.405c0.435,0.342,1.063,0.271,1.405-0.161c16.852-21.22,26.574-39.584,28.71-63.294   C164.252,118.137,163.846,117.65,163.296,117.602z" fill="#231F20"/>
<path d="M166.642,83.638c-0.547,0.075-0.93,0.579-0.858,1.126c0.395,2.916,0.567,5.436,0.567,7.695   c0,4.143-0.578,7.406-1.482,10.686c-0.146,0.532,0.164,1.082,0.696,1.229c0.532,0.149,1.085-0.164,1.232-0.697   c0.938-3.396,1.555-6.889,1.555-11.218c0-2.364-0.182-4.975-0.585-7.963C167.692,83.949,167.188,83.563,166.642,83.638z" fill="#231F20"/>
</g>
</svg>